<svg xmlns="http://www.w3.org/2000/svg" width="33.438" height="36.769" viewBox="0 0 33.438 36.769">
  <g id="グループ_10" data-name="グループ 10" transform="translate(-330.781 -827.706)">
    <g id="方位磁石のフリーアイコン素材_2" data-name="方位磁石のフリーアイコン素材 2" transform="translate(327.859 830.651)">
      <path id="パス_5" data-name="パス 5" d="M24.861,127.674l-1.77-.741c-.406.584-.836,1.183-1.263,1.763l2.373.994v15.864l-9.12-3.819V130.977c-.392-.51-.846-1.1-1.321-1.742v12.5l-8.723,3.653V129.524l6.866-2.876c-.443-.648-.841-1.263-1.16-1.806l-7.82,3.275v20.449l11.5-4.816,10.441,4.374,11.5-4.816V122.859ZM34.246,141.9l-8.723,3.653V129.69l8.723-3.653Z" transform="translate(0 -114.743)" fill="#fff"/>
    </g>
    <g id="地図マーカーのアイコン素材4" transform="translate(256.485 827.706)">
      <path id="パス_3" data-name="パス 3" d="M89.133,0a7.024,7.024,0,0,0-7.024,7.024c0,4.068,3.232,6.612,4.98,9.642,1.673,2.9,1.671,4.014,2.044,4.014s.371-1.115,2.044-4.014c1.749-3.031,4.98-5.574,4.98-9.642A7.024,7.024,0,0,0,89.133,0Zm0,9.71A2.687,2.687,0,1,1,91.82,7.024,2.687,2.687,0,0,1,89.133,9.71Z" transform="translate(0)" fill="#fff"/>
    </g>
  </g>
</svg>
