<svg xmlns="http://www.w3.org/2000/svg" viewBox="0 0 33.44 25.71"><defs><style>.cls-1{fill:#329393;}.cls-2,.cls-3,.cls-4{fill:none;}.cls-3,.cls-4{stroke:#329393;stroke-miterlimit:10;}.cls-3{stroke-width:2px;}</style></defs><g id="レイヤー_2" data-name="レイヤー 2"><g id="レイヤー_1-2" data-name="レイヤー 1"><g id="方位磁石のフリーアイコン素材_2" data-name="方位磁石のフリーアイコン素材 2"><path id="パス_5" data-name="パス 5" class="cls-1" d="M21.94,4.82l-1.77-.75c-.41.59-.84,1.19-1.26,1.77l2.37,1V22.69l-9.12-3.81V8.12c-.39-.51-.85-1.1-1.32-1.74v12.5L2.11,22.53V6.67L9,3.79C8.54,3.14,8.14,2.53,7.82,2L0,5.26V25.71l11.5-4.82,10.44,4.38,11.5-4.82V0ZM31.32,19,22.6,22.69V6.83l8.72-3.65Z"/></g></g><g id="レイヤー_2-2" data-name="レイヤー 2"><line class="cls-2" x1="2.09" y1="6.67" x2="13.87" y2="1.79"/><rect class="cls-3" x="11.64" y="3.6" width="9.48" height="0.11" transform="matrix(0.92, 0.38, -0.38, 0.92, 2.65, -6)"/><rect class="cls-3" x="1.51" y="3.67" width="9.84" height="0.11" transform="translate(13.79 4.69) rotate(157.4)"/><rect class="cls-4" x="11.34" y="3" width="0.32" height="9.95"/></g></g></svg>